<?xml version="1.0" encoding="UTF-8"?>
<svg width="317px" height="89px" viewBox="0 0 317 89" version="1.1" xmlns="http://www.w3.org/2000/svg" xmlns:xlink="http://www.w3.org/1999/xlink">
    <!-- Generator: Sketch 3.8.1 (29687) - http://www.bohemiancoding.com/sketch -->
    <title>logo invert</title>
    <desc>Created with Sketch.</desc>
    <defs></defs>
    <g id="Page-1" stroke="none" stroke-width="1" fill="none" fill-rule="evenodd">
        <g id="logo-invert">
            <path d="M315.01,10.28 C315.01,9.74 315.08,8.11 315.08,7.56 C315.08,5.92 315.01,5.52 314.74,5.11 C314.13,3.89 313.04,3.89 312.7,3.89 C312.16,3.89 306.95,4.03 306.4,4.03 C305.51,4.03 301.77,3.89 300.95,3.89 C299.72,3.89 294.41,4.1 293.32,4.1 C292.98,4.1 292.1,4.03 291.21,4.03 C290.32,3.96 286.55,3.96 286.21,3.96 C284.03,3.96 283.89,5.19 283.89,6.28 C283.89,6.76 283.96,9.07 283.96,9.48 C283.96,10.71 283.96,10.74 283.89,11.9 L283.89,12.38 C283.89,13.67 284.78,14.42 286.07,14.42 L291.44,14.42 C292.46,14.42 294.3,15.76 294.3,19.1 C294.3,21.01 294.09,22.91 294.09,24.89 C294.09,25.77 294.36,29.91 294.36,30.66 C294.36,31.75 294.02,36.38 294.02,37.33 C294.02,38.28 294.22,42.23 294.22,43.05 C294.22,44.07 293.88,48.5 293.88,49.38 C293.88,50.81 294.63,51.43 294.83,51.56 C295.04,51.7 295.37,51.83 296.19,51.83 C296.66,51.83 297.91,51.76 299.02,51.76 L299.1,51.76 L299.02,51.76 C299.23,51.76 300.36,51.77 301.66,51.83 C302.07,51.9 302.48,51.9 302.88,51.9 C303.83,51.9 305.4,51.76 305.4,49.58 C305.4,49.04 305.2,46.51 305.13,45.97 L305.13,44.27 C305.13,43.59 305.2,40.32 305.2,39.64 C305.2,38.62 305.06,34.06 305.06,33.17 C305.06,32.01 305.2,26.58 305.2,25.49 C305.2,24.54 305,20.11 305,19.23 C305,17.87 305,14.27 307.25,14.27 C307.59,14.27 312.75,14.34 312.96,14.34 C314.73,14.34 315.07,13.05 315.07,12.02 C315.08,11.68 315.01,10.62 315.01,10.28 M282.23,49.18 C282.23,48.5 282.16,47.82 282.03,47.14 C281.76,46.05 281.55,44.9 281.28,43.8 C280.74,40.94 280.19,38.08 279.92,35.22 C279.65,31.82 279.33,31.47 278.99,29.64 C278.65,27.8 277.08,20.04 276.81,18.4 C276.68,17.44 275.69,13.09 275.55,12.27 C275.48,11.59 274.74,7.84 274.53,7.02 C274.05,4.5 273.37,3.89 270.78,3.89 C269.08,3.96 268.46,4.03 266.76,4.03 C265.4,4.03 265.12,4.03 263.76,3.96 C263.01,3.89 262.26,3.82 261.52,3.82 C258.66,3.82 257.98,4.16 256.89,8.93 C256.34,11.59 255.89,14.25 255.34,16.9 C255,18.67 254.52,20.37 254.25,22.08 C254.05,23.31 253.98,24.46 253.78,25.69 C253.5,27.67 252.77,29.71 252.5,31.75 C252.3,32.77 251.69,37.33 251.48,38.29 C251.34,39.11 251.14,39.93 251,40.68 C250.93,41.23 249.44,49.74 249.44,50.08 C249.44,50.56 249.71,51.51 250.6,51.78 C251.14,51.92 251.69,51.92 252.24,51.92 C252.92,51.92 255.15,51.85 255.69,51.85 C256.23,51.85 258.04,52.05 258.51,52.05 C259.67,52.05 260.76,51.57 260.83,49.53 C260.9,48.71 261.36,45.1 261.7,44.56 C262.04,44.02 262.59,43.88 264.02,43.88 C266.75,43.88 269.19,43.88 269.47,44.02 C270.22,44.36 270.36,45.11 270.49,46.61 C270.63,47.63 270.95,48.65 270.95,49.61 C270.95,50.36 271.02,52.06 273.2,52.06 C273.74,52.06 276.07,51.86 276.55,51.86 C277.3,51.86 279.48,52.06 280.16,52.06 C281.34,52.04 282.23,50.67 282.23,49.18 M268.48,32.61 C268.67,34.92 266.19,34.29 265.37,34.29 C263.87,34.29 262.84,34.45 262.84,32.61 C262.84,31.66 263.53,27.79 263.73,26.77 C264,25.27 264.07,23.77 264.48,22.21 C264.68,21.46 264.96,19.6 265.09,18.78 C265.16,18.23 265.39,16.24 265.87,16.24 C266,16.24 266.59,17.28 266.72,18.37 C266.86,19.19 267.26,23.03 267.4,23.91 C267.54,25 267.81,26.09 267.95,27.18 C268.11,28.13 268.33,30.77 268.48,32.61 M243.58,13.53 C243.96,12.89 243.87,9.38 243.87,7.74 C243.87,5.71 242.14,3.73 239.92,3.73 C238.34,3.73 235.41,3.63 230.78,3.63 C224.31,3.63 223.15,4.45 221.25,5.74 C216.33,9.38 214.9,13.06 214.85,20.6 C214.84,21.42 214.78,28.88 214.78,29.63 C214.78,30.38 214.71,33.92 214.71,34.6 C214.71,35.01 214.91,38.82 215.25,40.39 C215.39,41.07 216.34,44.47 217.29,46.11 C219.4,49.79 224.1,52.31 231.05,52.31 C233.57,52.31 238.09,52.1 240.3,52.1 C242.52,52.1 243.97,49.89 243.71,47.76 C243.54,46.37 244.18,42.7 243.1,42.3 C241.97,41.84 238.67,42.21 236.44,42.07 C235.05,41.98 230.5,42.08 230.18,42.08 C226.98,42.08 225.7,38.68 225.7,36.3 C225.7,34.74 225.31,30.23 225.46,26.56 C225.5,25.74 225.77,19.66 225.77,18.97 C225.77,17.27 227.05,13.96 230.38,13.94 C231.7,13.93 233.69,14.01 235.53,13.85 C237.37,13.68 243.1,14.3 243.58,13.53 M208.23,7.76 C208.3,7.35 208.3,7.01 208.3,6.6 C208.3,5.99 208.3,4.01 206.12,4.01 C205.92,4.01 205.17,4.01 204.42,4.08 C203.67,4.08 202.92,4.14 202.65,4.14 C201.9,4.14 199.66,3.94 199.05,3.94 C198.43,3.94 197.96,3.94 197.28,4.76 C196.8,5.31 196.66,5.51 196.66,8.65 C196.66,9.53 196.73,10.42 196.73,11.37 C196.73,12.46 196.65,17.23 196.65,18.18 C196.65,19.61 196.79,25.81 196.79,27.03 C196.79,28.8 196.59,31.14 196.59,32.84 C196.59,33.32 196.71,35.24 196.66,35.71 C196.27,39.23 195.66,39.88 194.23,40.77 C193.75,41.04 192.31,41.45 190.87,41.37 C188.95,41.26 187.64,40.01 187.25,39.36 C186.78,38.55 186.78,36.98 186.78,36.03 C186.78,34.33 186.85,33.03 186.85,31.39 C186.85,30.71 186.78,27.85 186.78,27.23 C186.78,26.21 186.98,21.78 186.98,20.9 L186.98,18.18 C186.98,17.77 187.05,15.93 187.05,15.59 C187.05,15.04 186.98,12.87 186.98,12.39 C186.98,10.14 186.99,7.76 187.06,6.94 C187.13,6.67 187.13,6.46 187.13,6.19 C187.13,4.97 186.31,4.49 186.04,4.35 C185.7,4.14 185.5,4.08 183.59,4.08 L182.5,4.08 C182.02,4.14 181.54,4.14 181.34,4.14 C180.66,4.14 178.36,3.94 177.75,3.94 C175.77,3.94 175.37,4.83 175.37,8.3 C175.37,9.32 175.51,13.95 175.51,14.91 C175.51,15.86 175.3,20.22 175.3,21.11 C175.3,22.74 175.57,30.1 175.57,31.6 C175.57,32.76 175.49,36.34 175.49,37.43 C175.49,38.79 175.88,42.64 176.64,44.62 C177.73,47.27 179.62,49.33 180.78,50.01 C183.23,51.44 187.19,52.71 191.35,52.71 C196.39,52.71 197.62,52.6 200.76,50.96 C201.85,50.41 204.43,48.42 206.13,45.83 C206.88,44.68 207.7,42.77 207.84,40.93 C207.97,39.97 207.91,35.38 207.97,34.43 C207.97,33.81 207.98,33.27 208.04,32.66 C208.11,31.98 208.11,31.3 208.11,30.55 C208.11,29.19 207.97,27.86 207.97,26.7 C207.97,25.54 208.04,24.45 208.11,23.29 C208.11,22.27 208.25,21.18 208.25,20.09 C208.25,19.54 208.17,16.33 208.17,15.85 C208.1,15.17 208.1,14.49 208.1,13.81 C208.08,12.31 208.09,10.15 208.23,7.76 M168.14,28.68 C168.14,27.11 168.21,25.54 168.21,23.98 C168.21,17.03 167.57,11.89 164.91,8.89 C164.43,8.34 162.59,6.59 162.11,6.25 C159.11,4.07 157.07,3.63 152.45,3.45 C148.22,3.29 145.18,4.15 143.28,5.44 C138.87,8.26 136.67,13.2 136.67,24.58 C136.67,25.4 136.8,28.87 136.8,29.62 C136.8,30.37 136.73,33.91 136.73,34.59 C136.73,35 136.93,39.29 137.27,40.86 C137.41,41.54 138.36,44.95 139.32,46.58 C141.43,50.26 146.13,52.78 153.08,52.78 C155.6,52.78 157.03,52.37 158.46,51.96 C160.5,51.28 162.07,50.73 164.25,48.08 C165.95,46.04 166.56,44.33 167.38,39.57 C168.07,35.76 168.07,35.14 168.14,28.68 M157.33,25.2 C157.33,26.42 157.4,27.65 157.4,28.88 C157.4,29.76 157.06,33.65 157.06,34.39 C157.06,34.87 157.03,37.6 156.96,38 C156.89,39.36 155.48,42.54 152.19,42.54 C147.28,42.54 147.07,39.51 147.07,35 C147.07,33.43 147.02,27.9 147.02,26.54 C147.02,25.72 147.14,20.47 147.14,19.79 C147.14,15.84 148.29,13.61 151.79,13.61 C154.58,13.61 156.72,14.96 156.99,17.68 C157.13,18.97 157.33,21.79 157.33,22.61 C157.34,23.02 157.33,24.86 157.33,25.2 M132.51,8.58 C132.72,7.97 133.06,6.47 133.06,5.86 C133.06,5.04 132.72,4.57 132.03,4.16 C131.69,3.96 131.28,3.89 130.26,3.89 C129.78,3.89 127.74,3.96 127.33,3.96 C126.1,3.96 125.51,3.82 124.21,3.82 C121.83,3.82 121.87,5.23 121.25,7.26 C120.91,8.89 120.07,11.27 119.45,13.42 C118.82,15.57 118.39,17.64 118.15,18.6 C117.92,19.56 117.09,21.79 117.02,21.79 C116.82,21.79 115.86,19.49 115.53,18.06 C115.32,17.18 114.02,13.34 113.81,12.58 C113.61,11.56 113.15,10.54 112.94,9.52 C112.67,8.36 111.83,5.38 111.22,4.63 C110.68,4.02 109.99,3.88 109.38,3.88 C108.63,3.88 106.49,4.02 105.81,4.02 C105.27,4.02 102.75,3.88 102.27,3.88 C101.73,3.88 100.84,3.88 100.43,5.04 C100.36,5.24 100.29,5.45 100.29,5.65 C100.29,5.99 100.43,6.33 101.31,8.65 C102.26,10.96 103.02,13.28 103.7,15.66 C104.45,17.97 104.59,18.31 105.68,20.77 C106.29,22.13 107.66,25.26 108.81,28.81 C109.92,31.52 110.89,33.99 110.96,34.6 C111.03,35.15 111.1,35.69 111.1,36.3 C111.1,36.57 111.03,37.93 111.1,38.21 C111.1,39.16 111.23,40.18 111.23,41.14 C111.23,41.68 111.03,43.93 111.03,44.41 C111.03,44.68 111.1,46.05 111.1,46.32 L111.1,49.86 C111.1,51.29 111.98,52.11 113.48,52.11 L115.35,52.04 C115.83,52.04 117.49,51.97 117.9,51.97 C118.31,51.97 120.22,52.04 120.62,51.97 C122.05,51.84 122.39,50.54 122.39,49.04 C122.39,48.29 122.25,44.95 122.25,44.27 C122.25,43.52 122.45,40.18 122.45,39.5 C122.45,38.62 122.38,37.73 122.38,36.91 C122.38,36.09 122.45,35.28 122.65,34.46 C122.99,32.82 123.88,31.19 124.63,29.49 C125.38,27.79 126.06,26.34 126.67,24.64 C126.94,23.89 127.21,23.21 127.49,22.53 C127.76,21.78 128.28,20.91 128.56,20.16 C128.69,19.62 130.43,14.83 130.64,14.35 C131.38,12.38 132.31,9.4 132.51,8.58" id="youcat" fill="#FFFFFF"></path>
            <g id="indonesia" transform="translate(101.000000, 66.000000)" fill="#FFFFFF">
                <polygon id="i" points="5.29 1.29 5.29 20.95 0.06 20.95 0.06 1.29"></polygon>
                <path d="M32.93,20.95 L26.34,20.95 L21.36,6.16 L21.44,6.75 C21.63,8.05 21.77,9.27 21.88,10.41 C21.98,11.55 22.04,12.85 22.04,14.3 L22.04,20.95 L17.4,20.95 L17.4,1.29 L23.85,1.29 L29,16.14 C28.77,14.73 28.6,13.45 28.48,12.32 C28.36,11.19 28.3,9.89 28.3,8.42 L28.3,1.29 L32.94,1.29 L32.94,20.95 L32.93,20.95 Z" id="n"></path>
                <path d="M58.42,3.39 C60.31,4.8 61.25,7.35 61.25,11.04 C61.25,17.64 57.94,20.94 51.32,20.94 L45.04,20.94 L45.04,1.28 L50.92,1.28 C54.04,1.29 56.53,1.99 58.42,3.39 L58.42,3.39 Z M50.27,5.02 L50.27,17.21 L51.63,17.21 C53.06,17.21 54.12,16.76 54.81,15.85 C55.5,14.94 55.84,13.34 55.84,11.04 C55.84,9.46 55.67,8.23 55.34,7.35 C55.01,6.47 54.54,5.86 53.93,5.52 C53.32,5.18 52.54,5.01 51.6,5.01 L50.27,5.01 L50.27,5.02 Z" id="d"></path>
                <path d="M87.47,3.49 C89.05,5.3 89.85,7.84 89.85,11.1 C89.85,13.23 89.5,15.07 88.79,16.63 C88.08,18.19 87.05,19.38 85.69,20.21 C84.33,21.04 82.71,21.45 80.82,21.45 C77.97,21.45 75.76,20.54 74.19,18.73 C72.61,16.92 71.83,14.37 71.83,11.09 C71.83,8.96 72.18,7.12 72.89,5.57 C73.6,4.02 74.62,2.84 75.97,2.01 C77.32,1.18 78.94,0.77 80.82,0.77 C83.67,0.78 85.89,1.68 87.47,3.49 L87.47,3.49 Z M78.12,6.07 C77.54,7.09 77.26,8.77 77.26,11.11 C77.26,13.45 77.55,15.13 78.14,16.16 C78.72,17.19 79.62,17.7 80.83,17.7 C82.07,17.7 82.98,17.19 83.55,16.17 C84.12,15.15 84.4,13.46 84.4,11.11 C84.4,8.77 84.12,7.09 83.55,6.07 C82.98,5.05 82.08,4.54 80.83,4.54 C79.6,4.54 78.7,5.05 78.12,6.07 L78.12,6.07 Z" id="o"></path>
                <path d="M116.7,20.95 L110.11,20.95 L105.13,6.16 L105.21,6.75 C105.4,8.05 105.54,9.27 105.65,10.41 C105.75,11.55 105.81,12.85 105.81,14.3 L105.81,20.95 L101.17,20.95 L101.17,1.29 L107.62,1.29 L112.77,16.14 C112.54,14.73 112.37,13.45 112.25,12.32 C112.13,11.19 112.07,9.89 112.07,8.42 L112.07,1.29 L116.71,1.29 L116.71,20.95 L116.7,20.95 Z" id="n"></path>
                <polygon id="e" points="141.28 1.29 140.74 5 134.04 5 134.04 9.19 139.9 9.19 139.9 12.78 134.04 12.78 134.04 17.25 141.2 17.25 141.2 20.96 128.8 20.96 128.8 1.3 141.28 1.3"></polygon>
                <path d="M163.1,1.43 C164.24,1.86 165.26,2.51 166.17,3.38 L163.82,6.15 C162.46,5.07 161.04,4.54 159.55,4.54 C158.78,4.54 158.19,4.69 157.78,4.98 C157.37,5.27 157.17,5.68 157.17,6.21 C157.17,6.59 157.27,6.9 157.48,7.14 C157.69,7.39 158.04,7.62 158.53,7.85 C159.02,8.08 159.79,8.36 160.85,8.7 C162.87,9.34 164.34,10.15 165.28,11.12 C166.21,12.09 166.68,13.43 166.68,15.15 C166.68,16.4 166.36,17.49 165.72,18.45 C165.08,19.4 164.15,20.14 162.93,20.67 C161.71,21.2 160.29,21.46 158.64,21.46 C155.51,21.46 152.95,20.51 150.97,18.6 L153.54,15.74 C155.1,17.02 156.74,17.66 158.43,17.66 C159.32,17.66 160,17.47 160.5,17.08 C160.99,16.69 161.23,16.18 161.23,15.54 C161.23,15.09 161.14,14.71 160.95,14.42 C160.76,14.13 160.43,13.86 159.95,13.63 C159.47,13.39 158.77,13.13 157.84,12.85 C155.61,12.15 154.05,11.31 153.14,10.33 C152.23,9.35 151.78,8.11 151.78,6.62 C151.78,5.45 152.1,4.42 152.73,3.54 C153.36,2.65 154.24,1.97 155.36,1.49 C156.48,1.01 157.74,0.77 159.14,0.77 C160.65,0.78 161.96,0.99 163.1,1.43 L163.1,1.43 Z" id="s"></path>
                <polygon id="i" points="183.06 1.29 183.06 20.95 177.83 20.95 177.83 1.29"></polygon>
                <path d="M205.49,20.95 L204.61,16.93 L199.4,16.93 L198.52,20.95 L193.09,20.95 L198.92,1.29 L205.2,1.29 L211.03,20.95 L205.49,20.95 L205.49,20.95 Z M200.23,13.2 L203.79,13.2 L202.01,5.02 L200.23,13.2 L200.23,13.2 Z" id="a"></path>
            </g>
            <g id="Y">
                <path d="M43.66,1.44 C37.06,2.88 30.3,1.69 24.59,5.48 C19,9.19 12.09,14.15 9.09,18.1 C6.09,22.05 -2.63,44.53 2.41,57.92 C7.56,71.62 12.63,75.82 27.35,84.76 C42.07,93.7 68.77,84.46 75.51,76.59 C78.98,72.54 85.42,68.86 87.53,59.94 C90.17,48.73 90.2,36.41 84.76,26.4 C79.32,16.39 69.91,6.89 62.98,4.42 C56.05,1.95 50.26,9.76996262e-15 43.66,1.44 L43.66,1.44 Z" id="Shape" fill="#FFFFFF"></path>
                <path d="M64.44,22.48 C64.7,21.71 65.13,19.83 65.13,19.06 C65.13,18.03 64.7,17.43 63.84,16.92 C63.41,16.67 62.9,16.58 61.62,16.58 C61.02,16.58 58.45,16.67 57.94,16.67 C56.4,16.67 55.65,16.5 54.02,16.5 C51.03,16.5 51.08,18.27 50.3,20.82 C49.87,22.87 48.82,25.86 48.04,28.56 C47.25,31.26 46.71,33.86 46.41,35.06 C46.12,36.27 45.08,39.07 44.99,39.07 C44.74,39.07 43.54,36.19 43.12,34.39 C42.86,33.28 41.22,28.46 40.96,27.51 C40.7,26.23 40.12,24.95 39.87,23.66 C39.53,22.21 38.47,18.47 37.71,17.52 C37.03,16.75 36.17,16.58 35.4,16.58 C34.46,16.58 31.77,16.75 30.91,16.75 C30.23,16.75 27.06,16.58 26.46,16.58 C25.78,16.58 24.66,16.58 24.15,18.03 C24.07,18.29 23.98,18.54 23.98,18.8 C23.98,19.23 24.15,19.66 25.26,22.57 C26.46,25.47 27.4,28.38 28.26,31.38 C29.2,34.29 29.37,34.71 30.74,37.8 C31.51,39.51 33.22,43.44 34.68,47.89 C36.08,51.3 37.29,54.39 37.38,55.16 C37.47,55.84 37.56,56.53 37.56,57.3 C37.56,57.64 37.47,59.35 37.56,59.69 C37.56,60.89 37.73,62.17 37.73,63.37 C37.73,64.05 37.47,66.88 37.47,67.47 C37.47,67.81 37.56,69.53 37.56,69.87 L37.56,74.32 C37.56,76.12 38.67,77.15 40.55,77.15 L42.89,77.07 C43.49,77.07 45.57,76.98 46.09,76.98 C46.6,76.98 49,77.07 49.51,76.98 C51.31,76.81 51.74,75.19 51.74,73.3 C51.74,72.36 51.57,68.17 51.57,67.31 C51.57,66.37 51.83,62.18 51.83,61.32 C51.83,60.21 51.75,59.1 51.75,58.07 C51.75,57.04 51.83,56.02 52.09,54.99 C52.52,52.94 53.63,50.88 54.57,48.75 C55.51,46.61 56.36,44.8 57.13,42.66 C57.47,41.72 57.81,40.86 58.16,40.01 C58.5,39.07 59.16,37.97 59.5,37.03 C59.67,36.35 61.85,30.34 62.11,29.74 C63.02,27.25 64.19,23.5 64.44,22.48" id="Shape" fill="#F6CE3E"></path>
            </g>
        </g>
    </g>
</svg>